.
..............................Site Info...........................

 -   http://www.scenetime.com  *_*   

SceneTime is going to Close sign up on march/1, hurry up! get in before the doors are closed.

     We care to share . Join us on  http://www.scenetime.com 

    Be the first to get new release at  http://www.scenetime.com

        Seed back for speed


...................................NFO:.................................................
ooooooooooooo ooooooooo.    o8o  ooooo      ooo  o8o  ooooooooooooo oooooo   oooo 
8'   888   `8 `888   `Y88.  `"'  `888b.     `8'  `"'  8'   888   `8  `888.   .8'  
     888       888   .d88' oooo   8 `88b.    8  oooo       888        `888. .8'   
     888       888ooo88P'  `888   8   `88b.  8  `888       888         `888.8'    
     888       888`88b.     888   8     `88b.8   888       888          `888'     
     888       888  `88b.   888   8       `888   888       888           888      
    o888o     o888o  o888o o888o o8o        `8  o888o     o888o         o888o  
                                     ___________                    ______
                              ______ ___  /__  /____  _____________ __  /
                              _  __ `/_  /__  /__  / / /  ___/  __ `/  __/
                              / /_/ /_  / _  / _  /_/ // /__ / /_/ // /
                              \__,_/ /_/  /_/  _\__, / \___/ \__,_/ \__/ 
                                               /____/








[img]http://i.imgur.com/3CStq.jpg[/img]

[img]http://i.imgur.com/sKPbS.gif[/img]

EnCoDer:Allycat



General
Complete name                    : The Vow 2012 TS XVID AC3-TRiNiTY .avi
Format                           : AVI
Format/Info                      : Audio Video Interleave
File size                        : 833 MiB
Duration                         : 1h 39mn
Overall bit rate                 : 1 170 Kbps
Writing library                  : VirtualDub build 30091/release

Video
ID                               : 0
Format                           : MPEG-4 Visual
Format profile                   : Advanced Simple@L5
Format settings, BVOP            : 2
Format settings, QPel            : No
Format settings, GMC             : No warppoints
Format settings, Matrix          : Default (H.263)
Codec ID                         : XVID
Codec ID/Hint                    : XviD
Duration                         : 1h 39mn
Bit rate                         : 776 Kbps
Width                            : 720 pixels
Height                           : 304 pixels
Display aspect ratio             : 2.35:1
Frame rate                       : 25.000 fps
Color space                      : YUV
Chroma subsampling               : 4:2:0
Bit depth                        : 8 bits
Scan type                        : Progressive
Compression mode                 : Lossy
Bits/(Pixel*Frame)               : 0.142
Stream size                      : 553 MiB (66%)
Writing library                  : XviD 1.2.1 (UTC 2008-12-04)

Audio
ID                               : 1
Format                           : AC-3
Format/Info                      : Audio Coding 3
Mode extension                   : CM (complete main)
Codec ID                         : 2000
Duration                         : 1h 39mn
Bit rate mode                    : Constant
Bit rate                         : 384 Kbps
Channel(s)                       : 2 channels
Channel positions                : Front: L R
Sampling rate                    : 48.0 KHz
Bit depth                        : 16 bits
Compression mode                 : Lossy
Stream size                      : 273 MiB (33%)
Alignment                        : Aligned on interleaves
Interleave, duration             : 40 ms (1.00 video frame)
Interleave, preload duration     : 512 ms

SOURCE:
The Vow:BBnRG.Thanks

Sample:Yes.

PLOT:
A car accident puts Paige (McAdams) in a coma, and when she wakes up with severe memory loss, her husband Leo (Tatum) works to win her heart again.

SCREENS:
[img]http://i.imgur.com/a4xnp.png[/img]
[img]http://i.imgur.com/Z0nKW.png[/img]
[img]http://i.imgur.com/gYRcE.png[/img]
[img]http://i.imgur.com/R9CFH.png[/img]
[img]http://i.imgur.com/ktl5Y.png[/img]

A big shout out to
Friends,
w13,bobwhite,BigRed81,tinners,Twisted,bigguy,sa55,greyshadow,Reidy,NiNe,Bustheadz,Stoner,Selina,

GREETS:

IMAGiNE,FLAWL3SS,BHRG,RemixHD,PRESTIGE,SiC,BOW,TWiZTED,KiK,iGNiTiON,*THC*,INF1N1TY,BBnRG,CrEwSaDe,UnKnOwN,26k,GooN,INSPiRAL,DTRG,Xtreme Encode

and all other Groups past and present